<svg aria-hidden="true" style="width:0;height:0;position:absolute;overflow:hidden" xmlns="http://www.w3.org/2000/svg"><defs><symbol id="telegram" viewBox="0 0 32 32"><path d="m12.867 18.376-.317 4.169c.455 0 .651-.183.888-.401l2.13-1.901 4.414 3.018c.81.421 1.381.199 1.6-.696l2.897-12.673c.258-1.117-.433-1.554-1.221-1.28L6.226 14.698c-1.162.422-1.145 1.026-.198 1.301l4.355 1.264 10.114-5.907c.476-.295.909-.132.553.163l-8.182 6.856z"/></symbol><symbol id="facebook" viewBox="0 0 32 32"><path d="M20.446 15.981h-2.611V25.6H13.88v-9.619H12v-3.379h1.88v-2.187c0-1.564.739-4.014 3.991-4.014l2.929.012v3.281h-2.125c-.348 0-.839.176-.839.922v1.989h2.955l-.345 3.377z"/></symbol><symbol id="github" viewBox="0 0 32 32"><path d="M16 6.588c-5.17 0-9.412 4.242-9.412 9.412 0 4.411 3.096 8.419 7.206 9.412v-3.113a2.314 2.314 0 0 1-1.196-.031c-.556-.164-1.008-.535-1.344-1.099-.214-.36-.593-.753-.988-.724l-.097-1.098c.856-.073 1.594.521 2.033 1.258.196.328.421.52.709.605.278.083.577.043.925-.08.088-.697.408-.958.649-1.327-2.452-.365-3.429-1.666-3.816-2.692-.514-1.364-.238-3.066.67-4.143.018-.021.05-.075.038-.113-.417-1.259.09-2.3.109-2.41.481.141.559-.143 2.089.786l.264.159c.111.066.075.028.186.019a7.787 7.787 0 0 1 1.97-.276h.006a8.021 8.021 0 0 1 2.002.284l.086.009c-.008-.002.024-.006.075-.037 1.911-1.158 1.842-.779 2.355-.946.019.111.519 1.169.106 2.411-.056.171 1.656 1.739.708 4.256-.388 1.026-1.365 2.328-3.816 2.693.314.48.692.734.69 1.722v3.886c4.109-.993 7.206-5 7.206-9.412 0-5.17-4.242-9.412-9.412-9.412z"/></symbol><symbol id="arrow" viewBox="0 0 17 32"><path d="M16.331 17.57 3.552 31.319a1.976 1.976 0 0 1-2.941.002l-.002-.002c-.378-.417-.61-.973-.61-1.583S.23 28.57.61 28.151l-.002.002 11.305-12.166L.608 3.823c-.378-.417-.61-.974-.61-1.584S.23 1.072.61.653L.608.655A1.974 1.974 0 0 1 3.55.653l.002.002 12.777 13.749c.407.439.61 1.011.61 1.583 0 .574-.203 1.148-.61 1.583z"/></symbol><symbol id="icon-Burger" viewBox="0 0 46 32"><path fill="#fff" stroke="#fff" style="stroke:var(--color2,#fff)" stroke-width="2.286" d="M0 2.286h45.714M0 16h45.714M0 29.714h45.714"/></symbol><symbol id="slider" viewBox="0 0 32 32"><path d="M31.6 15.432a1.357 1.357 0 0 0-.122-2.032l-.003-.002L17.174 1.723a1.869 1.869 0 0 0-1.146-.389c-.448 0-.86.157-1.183.419l.004-.003L.5 14.017a1.348 1.348 0 0 0-.07 2.037l.001.001.36.347c.595.581 1.56.651 2.152.155l1.072-.896v13.117c0 .803.701 1.456 1.563 1.456h5.592c.864 0 1.563-.653 1.563-1.456v-9.176h7.133v9.208a1.42 1.42 0 0 0 1.421 1.421l.048-.001h-.002 5.928c.861 0 1.56-.651 1.56-1.456V15.846s.299.24.664.541c.363.299 1.131.059 1.709-.536l.408-.419z"/></symbol><symbol id="icon-close" viewBox="0 0 32 32"><path fill="none" style="stroke:var(--color2,#fff)" stroke-width="2" d="m2.519 2 26.963 28M2 29.481 30 2.518"/></symbol><symbol id="arrow-right2" viewBox="0 0 32 32"><path d="m19.414 27.414 10-10a2 2 0 0 0 0-2.828l-10-10a2 2 0 1 0-2.828 2.828L23.172 14H4a2 2 0 1 0 0 4h19.172l-6.586 6.586c-.39.39-.586.902-.586 1.414s.195 1.024.586 1.414a2 2 0 0 0 2.828 0z"/></symbol><symbol id="close-franchise" viewBox="0 0 32 32"><path d="M23.733 10.304 22.229 8.8l-5.963 5.963L10.303 8.8l-1.504 1.504 5.963 5.963-5.963 5.963 1.504 1.504 5.963-5.963 5.963 5.963 1.504-1.504-5.963-5.963 5.963-5.963z"/></symbol><symbol id="check" viewBox="0 0 32 32"><path d="m4.817 15.389-.169-.162-2.544 2.41 8.962 8.55L29.895 8.225l-2.527-2.411L11.066 21.35l-6.249-5.962z"/></symbol><symbol id="ice-cream" viewBox="0 0 32 32"><path d="M11.313 28.543v-6.056c4.264-.276 7.648-3.832 7.648-8.164v-.045a.533.533 0 0 0-.504-.532 4.151 4.151 0 0 0-3.699-5.166c-.51-1.751-2.118-2.981-3.979-2.981s-3.471 1.23-3.98 2.981a4.151 4.151 0 0 0-3.698 5.166.532.532 0 0 0-.503.532v.045c0 4.332 3.385 7.888 7.648 8.164v6.056a5.049 5.049 0 0 0-3.943 2.675.532.532 0 0 0 .472.782h8.01a.535.535 0 0 0 .472-.782 5.05 5.05 0 0 0-3.943-2.675zm6.208-15.828c0 .357-.06.702-.177 1.03h-5.806a3.046 3.046 0 0 1-.178-1.03 3.064 3.064 0 0 1 2.991-3.079l.09-.001a3.084 3.084 0 0 1 3.08 3.08zM10.78 6.667c1.297 0 2.429.804 2.876 1.976a4.118 4.118 0 0 0-2.187 1.18 4.176 4.176 0 0 0-.69.943 4.146 4.146 0 0 0-.69-.943 4.118 4.118 0 0 0-2.187-1.18 3.078 3.078 0 0 1 2.877-1.976zM7.119 9.634l.09.001a3.063 3.063 0 0 1 2.99 3.079c0 .185-.017.369-.049.55a2.93 2.93 0 0 1-.129.48H4.215a3.083 3.083 0 0 1 2.904-4.11zm-3.437 5.178h14.196c-.252 3.696-3.339 6.626-7.098 6.626s-6.846-2.93-7.098-6.626zm4.103 16.121c.748-.85 1.831-1.351 2.994-1.351s2.246.502 2.994 1.351H7.784z"/><path d="m29.073 1.641-3.84-1.6a.534.534 0 0 0-.732.41l-.592 3.815h-4.153l-.686-2.682a.534.534 0 0 0-1.034.264l.618 2.417h-3.035a.535.535 0 0 0-.532.581l.28 3.123a.534.534 0 0 0 1.063-.095l-.055-.619h10.008l-.326 3.623h-6.698a.533.533 0 1 0 0 1.066h6.602l-.115 1.28h-5.918a.533.533 0 1 0 0 1.066h5.822l-.253 2.82h-6.233a.533.533 0 1 0 0 1.066h6.137l-.207 2.3h-7.683a.533.533 0 0 0-1.001.306l.077.753a4.797 4.797 0 0 0 1.545 3.12 4.8 4.8 0 0 0 2.713 1.23v3.301a3.852 3.852 0 0 0-2.892 2.027.535.535 0 0 0 .472.782h5.889a.535.535 0 0 0 .472-.782 3.853 3.853 0 0 0-2.873-2.024v-3.304a4.805 4.805 0 0 0 4.259-4.349l1.5-16.692a.537.537 0 0 0-.532-.581h-2.151l.462-2.979 3.212 1.338a.534.534 0 0 0 .411-.985zm-5.329 3.692-.133.857h-3.362l-.219-.857h3.714zm-7.54 0h2.725l.219.857h-2.867l-.077-.857zm3.304 25.6c.504-.451 1.162-.711 1.863-.711s1.359.26 1.863.711h-3.726zm1.872-6.079a3.724 3.724 0 0 1-3.717-3.307h7.435a3.725 3.725 0 0 1-3.718 3.307zm5.177-19.521-.077.857h-1.789l.133-.857h1.733z"/></symbol><symbol id="icon-untitled" viewBox="0 0 43 32"><path fill="#e1e1e1" style="fill:var(--color1,#e1e1e1)" d="M32.014 0c1.929 0 3.75.52 5.464 1.561s3.107 2.537 4.179 4.488C42.686 8 43.2 10.298 43.2 12.943s-.643 5.225-1.929 7.74c-.429.911-1.2 2.081-2.314 3.512a63.368 63.368 0 0 1-3.214 3.707L31.693 32 28.8 27.187a22.03 22.03 0 0 0 5.336-4.683c1.543-1.821 2.314-3.491 2.314-5.008 0-.78-.171-1.409-.514-1.886a8.359 8.359 0 0 1-5.014 1.626c-1.329 0-2.593-.412-3.793-1.236a8.555 8.555 0 0 1-2.957-3.122c-.771-1.258-1.157-2.558-1.157-3.902 0-1.518.45-2.97 1.35-4.358a10.222 10.222 0 0 1 3.407-3.382C29.143.412 30.558 0 32.015 0zM8.936 0c1.929 0 3.75.52 5.464 1.561s3.107 2.537 4.179 4.488c1.029 1.951 1.543 4.249 1.543 6.894 0 1.864-.236 3.534-.707 5.008-.471 1.518-1.286 3.1-2.443 4.748-1.114 1.561-2.164 2.862-3.15 3.902-.986 1.084-2.7 2.884-5.143 5.398l-2.893-4.813a22.03 22.03 0 0 0 5.336-4.683c1.543-1.821 2.314-3.491 2.314-5.008 0-.78-.171-1.409-.514-1.886a8.359 8.359 0 0 1-5.014 1.626c-1.329 0-2.593-.412-3.793-1.236a8.555 8.555 0 0 1-2.957-3.122C.387 11.619.001 10.319.001 8.975c0-1.518.429-2.97 1.286-4.358S3.28 2.102 4.694 1.235C6.065.411 7.48-.001 8.937-.001z"/></symbol></defs></svg>