
<svg aria-hidden="true" style="position: absolute; width: 0; height: 0; overflow: hidden;" version="1.1"
    xmlns="http://www.w3.org/2000/svg" xmlns:xlink="http://www.w3.org/1999/xlink">
    <defs>
<symbol id="icon_instagram-2" viewBox="0 0 32 32">
<path d="M31.968 9.408c-0.074-1.701-0.349-2.869-0.742-3.882-0.424-1.111-1.054-2.059-1.85-2.837l-0.001-0.001c-0.78-0.792-1.724-1.419-2.778-1.827l-0.054-0.018c-1.019-0.394-2.181-0.667-3.882-0.742-1.712-0.082-2.256-0.101-6.602-0.101-4.344 0-4.888 0.019-6.595 0.094-1.699 0.074-2.869 0.349-3.88 0.742-1.112 0.424-2.060 1.054-2.839 1.85l-0.001 0.001c-0.791 0.78-1.418 1.724-1.825 2.778l-0.018 0.054c-0.395 1.019-0.669 2.181-0.744 3.882-0.082 1.712-0.101 2.256-0.101 6.602 0 4.344 0.019 4.888 0.094 6.595 0.075 1.701 0.35 2.869 0.744 3.882 0.426 1.11 1.055 2.057 1.849 2.837l0.001 0.001c0.8 0.813 1.77 1.443 2.832 1.843 1.019 0.395 2.182 0.67 3.882 0.744 1.707 0.075 2.251 0.094 6.595 0.094 4.346 0 4.89-0.019 6.595-0.094 1.701-0.074 2.869-0.349 3.882-0.742 2.157-0.85 3.833-2.526 4.664-4.628l0.019-0.055c0.394-1.019 0.669-2.182 0.744-3.882 0.075-1.707 0.093-2.251 0.093-6.595s-0.006-4.888-0.080-6.595zM29.088 22.474c-0.070 1.563-0.333 2.406-0.55 2.97-0.552 1.399-1.64 2.486-3.004 3.024l-0.036 0.012c-0.56 0.219-1.411 0.482-2.968 0.55-1.688 0.075-2.194 0.094-6.464 0.094-4.269 0-4.782-0.019-6.464-0.094-1.563-0.069-2.406-0.331-2.97-0.55-0.721-0.269-1.334-0.676-1.836-1.192l-0.001-0.001c-0.517-0.503-0.924-1.117-1.184-1.803l-0.011-0.034c-0.218-0.563-0.48-1.413-0.549-2.97-0.075-1.688-0.094-2.195-0.094-6.464 0-4.27 0.019-4.784 0.094-6.464 0.069-1.563 0.331-2.406 0.549-2.97 0.269-0.722 0.678-1.337 1.198-1.837l0.002-0.002c0.504-0.517 1.119-0.923 1.806-1.182l0.034-0.011c0.56-0.219 1.411-0.48 2.968-0.55 1.688-0.074 2.195-0.093 6.464-0.093 4.275 0 4.782 0.019 6.464 0.093 1.563 0.069 2.406 0.331 2.97 0.55 0.693 0.256 1.325 0.662 1.837 1.194 0.531 0.52 0.938 1.144 1.195 1.84 0.218 0.56 0.48 1.411 0.549 2.968 0.075 1.688 0.094 2.194 0.094 6.464 0 4.269-0.019 4.768-0.094 6.458z"></path>
<path d="M16.059 7.782c-4.539 0.002-8.218 3.682-8.219 8.221v0c0 0 0 0.001 0 0.002 0 4.541 3.681 8.222 8.222 8.222s8.222-3.681 8.222-8.222c0-4.541-3.681-8.222-8.222-8.222-0.001 0-0.001 0-0.002 0h0zM16.059 21.334c-2.945-0-5.332-2.388-5.332-5.333s2.388-5.333 5.333-5.333c0 0 0.001 0 0.001 0h-0c2.946 0 5.334 2.388 5.334 5.334s-2.388 5.334-5.334 5.334v0zM26.525 7.458c0 1.060-0.86 1.92-1.92 1.92s-1.92-0.86-1.92-1.92v0c0-1.060 0.86-1.92 1.92-1.92s1.92 0.86 1.92 1.92v0z"></path>
</symbol>
<symbol id="icon_linkedin" viewBox="0 0 32 32">
<path d="M31.992 32h0.008v-11.738c0-5.741-1.237-10.163-7.947-10.163-3.227 0-5.392 1.77-6.277 3.45h-0.093v-2.914h-6.365v21.363h6.627v-10.578c0-2.786 0.528-5.48 3.978-5.48 3.398 0 3.448 3.179 3.448 5.658v10.402h6.621zM0.528 10.635h6.635v21.365h-6.635v-21.365zM3.843 0c-2.123 0-3.843 1.721-3.843 3.843v0c0 2.12 1.722 3.878 3.843 3.878 2.12 0 3.842-1.757 3.842-3.878s-1.72-3.841-3.841-3.843h-0z"></path>
</symbol>

        <symbol id="telegram" viewBox="0 0 32 32">
            <path
                d="M12.867 18.376l-0.317 4.169c0.455 0 0.651-0.183 0.888-0.401l2.13-1.901 4.414 3.018c0.81 0.421 1.381 0.199 1.6-0.696l2.897-12.673c0.258-1.117-0.433-1.554-1.221-1.28l-17.032 6.086c-1.162 0.422-1.145 1.026-0.198 1.301l4.355 1.264 10.114-5.907c0.476-0.295 0.909-0.132 0.553 0.163l-8.182 6.856z">
            </path>
        </symbol>
        <symbol id="facebook" viewBox="0 0 32 32">
            <path
                d="M20.446 15.981h-2.611v9.619h-3.955v-9.619h-1.88v-3.379h1.88v-2.187c0-1.564 0.739-4.014 3.991-4.014l2.929 0.012v3.281h-2.125c-0.348 0-0.839 0.176-0.839 0.922v1.989h2.955l-0.345 3.377z">
            </path>
        </symbol>
        <symbol id="github" viewBox="0 0 32 32">
            <path
                d="M16 6.588c-5.17 0-9.412 4.242-9.412 9.412 0 4.411 3.096 8.419 7.206 9.412v-3.113c-0.408 0.088-0.781 0.091-1.196-0.031-0.556-0.164-1.008-0.535-1.344-1.099-0.214-0.36-0.593-0.753-0.988-0.724l-0.097-1.098c0.856-0.073 1.594 0.521 2.033 1.258 0.196 0.328 0.421 0.52 0.709 0.605 0.278 0.083 0.577 0.043 0.925-0.080 0.088-0.697 0.408-0.958 0.649-1.327-2.452-0.365-3.429-1.666-3.816-2.692-0.514-1.364-0.238-3.066 0.67-4.143 0.018-0.021 0.050-0.075 0.038-0.113-0.417-1.259 0.090-2.3 0.109-2.41 0.481 0.141 0.559-0.143 2.089 0.786l0.264 0.159c0.111 0.066 0.075 0.028 0.186 0.019 0.59-0.166 1.269-0.266 1.97-0.276l0.006-0c0.668 0.008 1.336 0.104 2.002 0.284l0.086 0.009c-0.008-0.002 0.024-0.006 0.075-0.037 1.911-1.158 1.842-0.779 2.355-0.946 0.019 0.111 0.519 1.169 0.106 2.411-0.056 0.171 1.656 1.739 0.708 4.256-0.388 1.026-1.365 2.328-3.816 2.693 0.314 0.48 0.692 0.734 0.69 1.722v3.886c4.109-0.993 7.206-5 7.206-9.412 0-5.17-4.242-9.412-9.412-9.412z">
            </path>
        </symbol>
   <symbol id="arrow" viewBox="0 0 17 32">
<path d="M16.331 17.57l-12.779 13.749c-0.364 0.403-0.888 0.656-1.471 0.656s-1.107-0.252-1.47-0.654l-0.002-0.002c-0.378-0.417-0.61-0.973-0.61-1.583s0.231-1.166 0.611-1.585l-0.002 0.002 11.305-12.166-11.305-12.164c-0.378-0.417-0.61-0.974-0.61-1.584s0.232-1.167 0.612-1.586l-0.002 0.002c0.364-0.404 0.888-0.657 1.472-0.657s1.108 0.253 1.47 0.655l0.002 0.002 12.777 13.749c0.407 0.439 0.61 1.011 0.61 1.583 0 0.574-0.203 1.148-0.61 1.583z"></path>
</symbol>

<symbol id="icon-Burger" viewBox="0 0 46 32">
<path fill="#fff" stroke="#fff" style="stroke: var(--color2, #fff)" stroke-linejoin="miter" stroke-linecap="butt" stroke-miterlimit="4" stroke-width="2.2857" d="M0 2.286h45.714"></path>
<path fill="#fff" stroke="#fff" style="stroke: var(--color2, #fff)" stroke-linejoin="miter" stroke-linecap="butt" stroke-miterlimit="4" stroke-width="2.2857" d="M0 16h45.714"></path>
<path fill="#fff" stroke="#fff" style="stroke: var(--color2, #fff)" stroke-linejoin="miter" stroke-linecap="butt" stroke-miterlimit="4" stroke-width="2.2857" d="M0 29.714h45.714"></path>


</symbol>
<symbol id="slider" viewBox="0 0 32 32">
<path d="M31.6 15.432c0.246-0.246 0.399-0.586 0.399-0.962 0-0.435-0.204-0.822-0.521-1.070l-0.003-0.002-14.301-11.675c-0.314-0.243-0.713-0.389-1.146-0.389-0.448 0-0.86 0.157-1.183 0.419l0.004-0.003-14.349 12.267c-0.306 0.249-0.5 0.626-0.5 1.049 0 0.39 0.166 0.742 0.43 0.988l0.001 0.001 0.36 0.347c0.595 0.581 1.56 0.651 2.152 0.155l1.072-0.896v13.117c0 0.803 0.701 1.456 1.563 1.456h5.592c0.864 0 1.563-0.653 1.563-1.456v-9.176h7.133v9.173c-0 0.011-0 0.023-0 0.035 0 0.785 0.636 1.421 1.421 1.421 0.016 0 0.032-0 0.048-0.001l-0.002 0h5.928c0.861 0 1.56-0.651 1.56-1.456v-12.928s0.299 0.24 0.664 0.541c0.363 0.299 1.131 0.059 1.709-0.536l0.408-0.419z"></path>
</symbol>


<symbol id="icon-close" viewBox="0 0 32 32">
<path d="M32 3.223l-3.223-3.223-12.777 12.777-12.777-12.777-3.223 3.223 12.777 12.777-12.777 12.777 3.223 3.223 12.777-12.777 12.777 12.777 3.223-3.223-12.777-12.777 12.777-12.777z"></path>
</symbol>



<symbol id="arrow-right2" viewBox="0 0 32 32">
<path d="M19.414 27.414l10-10c0.781-0.781 0.781-2.047 0-2.828l-10-10c-0.781-0.781-2.047-0.781-2.828 0s-0.781 2.047 0 2.828l6.586 6.586h-19.172c-1.105 0-2 0.895-2 2s0.895 2 2 2h19.172l-6.586 6.586c-0.39 0.39-0.586 0.902-0.586 1.414s0.195 1.024 0.586 1.414c0.781 0.781 2.047 0.781 2.828 0z"></path>
</symbol>
<symbol id="close" viewBox="0 0 32 32">
    <path style="fill: var(--color1, #fff)" d="M23.733 10.304l-1.504-1.504-5.963 5.963-5.963-5.963-1.504 1.504 5.963 5.963-5.963 5.963 1.504 1.504 5.963-5.963 5.963 5.963 1.504-1.504-5.963-5.963 5.963-5.963z"></path>
</symbol>
<symbol id="check" viewBox="0 0 32 32">
    <path d="m4.817 15.389-.169-.162-2.544 2.41 8.962 8.55L29.895 8.225l-2.527-2.411L11.066 21.35l-6.249-5.962z"/>
</symbol>
<symbol id="ice-cream" viewBox="0 0 32 32">
<path d="M11.313 28.543v-6.056c4.264-0.276 7.648-3.832 7.648-8.164v-0.045c0-0.285-0.223-0.516-0.504-0.532 0.086-0.334 0.13-0.679 0.13-1.032 0-2.18-1.69-3.971-3.829-4.134-0.51-1.751-2.118-2.981-3.979-2.981s-3.471 1.23-3.98 2.981c-2.138 0.163-3.828 1.954-3.828 4.134 0 0.353 0.045 0.698 0.13 1.032-0.281 0.016-0.503 0.247-0.503 0.532v0.045c0 4.332 3.385 7.888 7.648 8.164v6.056c-1.668 0.175-3.148 1.167-3.943 2.675-0.087 0.165-0.082 0.364 0.015 0.524s0.27 0.258 0.457 0.258h8.010c0.187 0 0.36-0.098 0.457-0.258s0.102-0.359 0.015-0.524c-0.795-1.508-2.275-2.499-3.943-2.675zM17.521 12.715c0 0.357-0.060 0.702-0.177 1.030h-5.806c-0.055-0.156-0.1-0.317-0.129-0.481-0.033-0.18-0.049-0.365-0.049-0.549 0-1.678 1.313-3.031 2.991-3.079 0.030-0.001 0.060-0.001 0.090-0.001 1.698 0 3.080 1.382 3.080 3.080zM10.78 6.667c1.297 0 2.429 0.804 2.876 1.976-0.828 0.158-1.588 0.564-2.187 1.18-0.277 0.284-0.507 0.602-0.69 0.943-0.182-0.341-0.413-0.659-0.69-0.943-0.599-0.616-1.359-1.022-2.187-1.18 0.448-1.172 1.58-1.976 2.877-1.976zM7.119 9.634c0.030 0 0.060 0 0.090 0.001 1.677 0.048 2.99 1.4 2.99 3.079 0 0.185-0.017 0.369-0.049 0.55-0.029 0.164-0.073 0.324-0.129 0.48h-5.806c-0.117-0.328-0.176-0.673-0.176-1.030 0-1.699 1.382-3.080 3.080-3.080zM3.682 14.812h14.196c-0.252 3.696-3.339 6.626-7.098 6.626s-6.846-2.93-7.098-6.626zM7.785 30.933c0.748-0.85 1.831-1.351 2.994-1.351s2.246 0.502 2.994 1.351h-5.989z"></path>
<path d="M29.073 1.641l-3.84-1.6c-0.151-0.063-0.323-0.053-0.466 0.027s-0.241 0.222-0.266 0.383l-0.592 3.815h-4.153l-0.686-2.682c-0.073-0.285-0.363-0.458-0.649-0.385s-0.458 0.363-0.385 0.649l0.618 2.417h-3.035c-0.15 0-0.293 0.063-0.394 0.173s-0.151 0.258-0.138 0.408l0.28 3.123c0.026 0.293 0.286 0.51 0.579 0.484s0.51-0.285 0.484-0.579l-0.055-0.619h10.008l-0.326 3.623h-6.698c-0.295 0-0.533 0.239-0.533 0.533s0.239 0.533 0.533 0.533h6.602l-0.115 1.28h-5.918c-0.295 0-0.533 0.239-0.533 0.533s0.239 0.533 0.533 0.533h5.822l-0.253 2.82h-6.233c-0.295 0-0.533 0.239-0.533 0.533s0.239 0.533 0.533 0.533h6.137l-0.207 2.3h-7.683c-0.099-0.184-0.302-0.301-0.524-0.278-0.293 0.030-0.506 0.291-0.477 0.584l0.077 0.753c0.108 1.2 0.656 2.308 1.545 3.12 0.757 0.692 1.705 1.118 2.713 1.23v3.301c-1.225 0.167-2.304 0.911-2.892 2.027-0.087 0.165-0.081 0.364 0.015 0.524s0.27 0.258 0.457 0.258h5.889c0.187 0 0.36-0.098 0.457-0.258s0.102-0.359 0.015-0.524c-0.585-1.11-1.656-1.852-2.873-2.024v-3.304c1.008-0.112 1.956-0.538 2.713-1.229 0.889-0.813 1.438-1.921 1.546-3.12l1.5-16.692c0.013-0.149-0.037-0.297-0.138-0.408s-0.244-0.173-0.394-0.173h-2.151l0.462-2.979 3.212 1.338c0.272 0.113 0.584-0.015 0.698-0.287s-0.015-0.584-0.287-0.698zM23.744 5.333l-0.133 0.857h-3.362l-0.219-0.857h3.714zM16.204 5.333h2.725l0.219 0.857h-2.867l-0.077-0.857zM19.508 30.933c0.504-0.451 1.162-0.711 1.863-0.711s1.359 0.26 1.863 0.711h-3.726zM21.38 24.854c-1.915 0-3.494-1.412-3.717-3.307h7.435c-0.221 1.892-1.801 3.307-3.718 3.307zM26.557 5.333l-0.077 0.857h-1.789l0.133-0.857h1.733z"></path>
</symbol>
    <symbol id="icon-untitled" viewBox="0 0 43 32">
            <path fill="#e1e1e1" style="fill:var(--color1, #e1e1e1)"
                d="M32.014 0c1.929 0 3.75.52 5.464 1.561s3.107 2.537 4.179 4.488C42.686 8 43.2 10.298 43.2 12.943s-.643 5.225-1.929 7.74c-.429.911-1.2 2.081-2.314 3.512a63.368 63.368 0 0 1-3.214 3.707L31.693 32 28.8 27.187a22.03 22.03 0 0 0 5.336-4.683c1.543-1.821 2.314-3.491 2.314-5.008 0-.78-.171-1.409-.514-1.886a8.359 8.359 0 0 1-5.014 1.626c-1.329 0-2.593-.412-3.793-1.236a8.555 8.555 0 0 1-2.957-3.122c-.771-1.258-1.157-2.558-1.157-3.902 0-1.518.45-2.97 1.35-4.358a10.222 10.222 0 0 1 3.407-3.382C29.143.412 30.558 0 32.015 0zM8.936 0c1.929 0 3.75.52 5.464 1.561s3.107 2.537 4.179 4.488c1.029 1.951 1.543 4.249 1.543 6.894 0 1.864-.236 3.534-.707 5.008-.471 1.518-1.286 3.1-2.443 4.748-1.114 1.561-2.164 2.862-3.15 3.902-.986 1.084-2.7 2.884-5.143 5.398l-2.893-4.813a22.03 22.03 0 0 0 5.336-4.683c1.543-1.821 2.314-3.491 2.314-5.008 0-.78-.171-1.409-.514-1.886a8.359 8.359 0 0 1-5.014 1.626c-1.329 0-2.593-.412-3.793-1.236a8.555 8.555 0 0 1-2.957-3.122C.387 11.619.001 10.319.001 8.975c0-1.518.429-2.97 1.286-4.358S3.28 2.102 4.694 1.235C6.065.411 7.48-.001 8.937-.001z" />
        </symbol>


<symbol id="up" viewBox="0 0 24 24">
<path d="M12 7C12.2652 7 12.5196 7.10536 12.7071 7.29289L19.7071 14.2929C20.0976 14.6834 20.0976 15.3166 19.7071 15.7071C19.3166 16.0976 18.6834 16.0976 18.2929 15.7071L12 9.41421L5.70711 15.7071C5.31658 16.0976 4.68342 16.0976 4.29289 15.7071C3.90237 15.3166 3.90237 14.6834 4.29289 14.2929L11.2929 7.29289C11.4804 7.10536 11.7348 7 12 7Z" />
</symbol>

</defs>
</svg>
